<svg width="24" height="24" viewBox="0 0 24 24" fill="none" xmlns="http://www.w3.org/2000/svg">
<path d="M13.4099 11.9991L17.7099 7.70915C17.8982 7.52084 18.004 7.26545 18.004 6.99915C18.004 6.73285 17.8982 6.47745 17.7099 6.28915C17.5216 6.10084 17.2662 5.99506 16.9999 5.99506C16.7336 5.99506 16.4782 6.10084 16.2899 6.28915L11.9999 10.5891L7.70994 6.28915C7.52164 6.10084 7.26624 5.99506 6.99994 5.99506C6.73364 5.99506 6.47824 6.10084 6.28994 6.28915C6.10164 6.47745 5.99585 6.73285 5.99585 6.99915C5.99585 7.26545 6.10164 7.52084 6.28994 7.70915L10.5899 11.9991L6.28994 16.2891C6.19621 16.3821 6.12182 16.4927 6.07105 16.6146C6.02028 16.7364 5.99414 16.8671 5.99414 16.9991C5.99414 17.1312 6.02028 17.2619 6.07105 17.3837C6.12182 17.5056 6.19621 17.6162 6.28994 17.7091C6.3829 17.8029 6.4935 17.8773 6.61536 17.928C6.73722 17.9788 6.86793 18.0049 6.99994 18.0049C7.13195 18.0049 7.26266 17.9788 7.38452 17.928C7.50638 17.8773 7.61698 17.8029 7.70994 17.7091L11.9999 13.4091L16.2899 17.7091C16.3829 17.8029 16.4935 17.8773 16.6154 17.928C16.7372 17.9788 16.8679 18.0049 16.9999 18.0049C17.132 18.0049 17.2627 17.9788 17.3845 17.928C17.5064 17.8773 17.617 17.8029 17.7099 17.7091C17.8037 17.6162 17.8781 17.5056 17.9288 17.3837C17.9796 17.2619 18.0057 17.1312 18.0057 16.9991C18.0057 16.8671 17.9796 16.7364 17.9288 16.6146C17.8781 16.4927 17.8037 16.3821 17.7099 16.2891L13.4099 11.9991Z" fill="#8F8F8F"/>
</svg>
